<svg width="104" height="104" viewBox="0 0 104 104" fill="none" xmlns="http://www.w3.org/2000/svg">
<path d="M52 104C80.7188 104 104 80.7188 104 52C104 23.2812 80.7188 0 52 0C23.2812 0 0 23.2812 0 52C0 80.7188 23.2812 104 52 104Z" fill="#99D3FF"/>
<mask id="mask0" mask-type="alpha" maskUnits="userSpaceOnUse" x="0" y="0" width="104" height="104">
<path d="M52 104C80.7188 104 104 80.7188 104 52C104 23.2812 80.7188 0 52 0C23.2812 0 0 23.2812 0 52C0 80.7188 23.2812 104 52 104Z" fill="#99D3FF"/>
</mask>
<g mask="url(#mask0)">
<path d="M88.2597 96.0508C88.2597 114.131 71.9979 111.332 51.9401 111.332C31.8822 111.332 15.6248 114.131 15.6248 96.0508C15.6248 77.9709 31.8865 63.311 51.9444 63.311C72.0022 63.311 88.2597 77.9668 88.2597 96.0508Z" fill="url(#paint0_linear)"/>
<path d="M72.101 37.2734C72.101 48.2131 63.0739 57.0841 51.9397 57.0841C40.8055 57.0841 31.7827 48.2131 31.7827 37.2734C31.7827 26.3337 34.5533 15.7402 51.944 15.7402C70.1016 15.7402 72.101 26.3296 72.101 37.2734Z" fill="#61402F"/>
<path d="M57.697 63.8403C55.8786 69.2622 47.9546 69.2622 46.1362 63.8403C46.1362 62.3014 46.1362 60.7582 46.1362 59.2192C49.9884 59.2192 53.8448 59.2192 57.697 59.2192C57.697 60.7582 57.697 62.3014 57.697 63.8403Z" fill="#FFCBBB"/>
<path d="M69.1069 42.0861C71.0416 54.131 60.3685 60.6498 51.9187 60.6957C43.469 60.6498 32.7959 54.131 34.7306 42.0861C36.0146 30.0579 42.4263 22.7676 51.9187 22.972C61.4112 22.7676 67.8228 30.0621 69.1069 42.0861Z" fill="#FFDDCE"/>
<path d="M33.498 44.5591C35.1352 44.5591 36.4625 43.2745 36.4625 41.6897C36.4625 40.105 35.1352 38.8203 33.498 38.8203C31.8607 38.8203 30.5334 40.105 30.5334 41.6897C30.5334 43.2745 31.8607 44.5591 33.498 44.5591Z" fill="#FFDDCE"/>
<path d="M33.3385 40.7595C34.2219 40.7595 34.9414 41.4518 34.9414 42.311C34.9414 42.4402 34.9242 42.5695 34.8897 42.6905C35.0233 42.4653 35.1009 42.2025 35.1009 41.9231C35.1009 41.0681 34.3856 40.3716 33.498 40.3716C32.7482 40.3716 32.1191 40.8721 31.9468 41.5435C32.2225 41.0764 32.7396 40.7595 33.3385 40.7595Z" fill="#D89E73"/>
<path d="M70.3388 44.5591C71.976 44.5591 73.3033 43.2745 73.3033 41.6897C73.3033 40.105 71.976 38.8203 70.3388 38.8203C68.7015 38.8203 67.3743 40.105 67.3743 41.6897C67.3743 43.2745 68.7015 44.5591 70.3388 44.5591Z" fill="#FFDDCE"/>
<path d="M70.4987 40.7595C69.6154 40.7595 68.8958 41.4518 68.8958 42.311C68.8958 42.4402 68.913 42.5695 68.9475 42.6905C68.8139 42.4653 68.7363 42.2025 68.7363 41.9231C68.7363 41.0681 69.4516 40.3716 70.3393 40.3716C71.089 40.3716 71.7181 40.8721 71.8905 41.5435C71.6147 41.0764 71.0976 40.7595 70.4987 40.7595Z" fill="#D89E73"/>
<path d="M35.0757 39.2085C35.0757 39.2085 53.0825 34.9169 55.7583 26.8758C55.7583 26.8758 56.8657 33.1318 68.685 39.2085C68.685 39.2085 67.2803 21.2871 51.9191 21.1328C36.5579 20.9785 35.0757 39.2085 35.0757 39.2085Z" fill="#61402F"/>
<path d="M46.0194 63.2778L51.9441 68.0616L46.9889 71.7234L38.677 65.5592L46.0194 63.2778Z" fill="white"/>
<path d="M57.8991 63.2778L51.9744 68.0616L56.9296 71.7234L65.2371 65.5592L57.8991 63.2778Z" fill="white"/>
<path d="M68.8311 86.9044H63.9836C63.0271 86.9044 62.2515 86.1537 62.2515 85.2278V78.9927H70.5633V85.2278C70.5633 86.1537 69.7877 86.9044 68.8311 86.9044Z" fill="white"/>
<path d="M52.1809 69.0415H51.6897V111.365H52.1809V69.0415Z" fill="white"/>
</g>
<defs>
<linearGradient id="paint0_linear" x1="51.9422" y1="111.488" x2="51.9422" y2="63.311" gradientUnits="userSpaceOnUse">
<stop stop-color="#BCDEED"/>
<stop offset="1" stop-color="#FEFEFF"/>
</linearGradient>
</defs>
</svg>
